<svg width="293" height="170" viewBox="0 0 293 170" fill="none" xmlns="http://www.w3.org/2000/svg">
<rect width="293" height="170" fill="#F5F5F5"/>
<path d="M1 1H292V169H1V1Z" fill="url(#paint0_linear_0_1)" fill-opacity="0.45" stroke="#04001F"/>
<circle cx="95.5" cy="66.5" r="17.5" fill="black"/>
<circle cx="196.5" cy="66.5" r="17.5" fill="black"/>
<path d="M146 103L174.579 126.25H117.421L146 103Z" fill="black"/>
<path d="M256.83 11.4545C256.778 11.0227 256.571 10.6875 256.207 10.4489C255.844 10.2102 255.398 10.0909 254.869 10.0909C254.483 10.0909 254.145 10.1534 253.855 10.2784C253.568 10.4034 253.344 10.5753 253.182 10.794C253.023 11.0128 252.943 11.2614 252.943 11.5398C252.943 11.7727 252.999 11.973 253.109 12.1406C253.223 12.3054 253.368 12.4432 253.544 12.554C253.72 12.6619 253.905 12.7514 254.098 12.8224C254.291 12.8906 254.469 12.946 254.631 12.9886L255.517 13.2273C255.744 13.2869 255.997 13.3693 256.276 13.4744C256.557 13.5795 256.825 13.723 257.081 13.9048C257.339 14.0838 257.553 14.3139 257.72 14.5952C257.888 14.8764 257.972 15.2216 257.972 15.6307C257.972 16.1023 257.848 16.5284 257.601 16.9091C257.357 17.2898 256.999 17.5923 256.527 17.8168C256.058 18.0412 255.489 18.1534 254.818 18.1534C254.193 18.1534 253.652 18.0526 253.195 17.8509C252.74 17.6491 252.382 17.3679 252.121 17.0071C251.862 16.6463 251.716 16.2273 251.682 15.75H252.773C252.801 16.0795 252.912 16.3523 253.105 16.5682C253.301 16.7812 253.548 16.9403 253.847 17.0455C254.148 17.1477 254.472 17.1989 254.818 17.1989C255.222 17.1989 255.584 17.1335 255.905 17.0028C256.226 16.8693 256.48 16.6847 256.668 16.4489C256.855 16.2102 256.949 15.9318 256.949 15.6136C256.949 15.3239 256.868 15.0881 256.706 14.9062C256.544 14.7244 256.331 14.5767 256.067 14.4631C255.803 14.3494 255.517 14.25 255.21 14.1648L254.136 13.858C253.455 13.6619 252.915 13.3821 252.517 13.0185C252.119 12.6548 251.92 12.179 251.92 11.5909C251.92 11.1023 252.053 10.6761 252.317 10.3125C252.584 9.94602 252.942 9.66193 253.391 9.46023C253.842 9.25568 254.347 9.15341 254.903 9.15341C255.466 9.15341 255.966 9.25426 256.403 9.45597C256.841 9.65483 257.188 9.92756 257.443 10.2741C257.702 10.6207 257.838 11.0142 257.852 11.4545H256.83ZM260.766 9.27273V18H259.709V9.27273H260.766ZM262.885 18V9.27273H263.942V13.1591H268.595V9.27273H269.652V18H268.595V14.0966H263.942V18H262.885ZM272.126 18H271.018L274.222 9.27273H275.313L278.518 18H277.41L274.802 10.6534H274.734L272.126 18ZM272.535 14.5909H277.001V15.5284H272.535V14.5909ZM279.877 18V9.27273H282.928C283.536 9.27273 284.038 9.37784 284.433 9.58807C284.827 9.79545 285.121 10.0753 285.315 10.4276C285.508 10.777 285.604 11.1648 285.604 11.5909C285.604 11.9659 285.538 12.2756 285.404 12.5199C285.273 12.7642 285.1 12.9574 284.884 13.0994C284.671 13.2415 284.44 13.3466 284.19 13.4148V13.5C284.457 13.517 284.725 13.6108 284.995 13.7812C285.265 13.9517 285.491 14.196 285.673 14.5142C285.854 14.8324 285.945 15.2216 285.945 15.6818C285.945 16.1193 285.846 16.5128 285.647 16.8622C285.448 17.2116 285.134 17.4886 284.705 17.6932C284.276 17.8977 283.718 18 283.031 18H279.877ZM280.934 17.0625H283.031C283.721 17.0625 284.211 16.929 284.501 16.6619C284.793 16.392 284.94 16.0653 284.94 15.6818C284.94 15.3864 284.864 15.1136 284.714 14.8636C284.563 14.6108 284.349 14.4091 284.07 14.2585C283.792 14.1051 283.462 14.0284 283.082 14.0284H280.934V17.0625ZM280.934 13.108H282.894C283.212 13.108 283.499 13.0455 283.755 12.9205C284.013 12.7955 284.218 12.6193 284.369 12.392C284.522 12.1648 284.599 11.8977 284.599 11.5909C284.599 11.2074 284.465 10.8821 284.198 10.6151C283.931 10.3452 283.508 10.2102 282.928 10.2102H280.934V13.108Z" fill="#5F00FB" fill-opacity="0.48"/>
<defs>
<linearGradient id="paint0_linear_0_1" x1="146.5" y1="1" x2="146" y2="292" gradientUnits="userSpaceOnUse">
<stop stop-color="#4AFEBD"/>
<stop offset="1" stop-color="#70FFCB" stop-opacity="0"/>
</linearGradient>
</defs>
</svg>
